<svg width="100%" height="100%" id="svg" viewBox="0 0 1440 690" xmlns="http://www.w3.org/2000/svg" class="transition duration-300 ease-in-out delay-150"><defs><linearGradient id="gradient" x1="0%" y1="50%" x2="100%" y2="50%"><stop offset="5%" stop-color="#3f51b5"></stop><stop offset="95%" stop-color="#8ED1FC"></stop></linearGradient></defs><path d="M 0,700 C 0,700 0,233 0,233 C 97.42857142857142,197.60714285714286 194.85714285714283,162.21428571428572 317,157 C 439.14285714285717,151.78571428571428 586,176.75000000000003 708,180 C 830,183.24999999999997 927.1428571428571,164.78571428571428 1045,170 C 1162.857142857143,175.21428571428572 1301.4285714285716,204.10714285714286 1440,233 C 1440,233 1440,700 1440,700 Z" stroke="none" stroke-width="0" fill="url(#gradient)" fill-opacity="0.53" class="transition-all duration-300 ease-in-out delay-150 path-0"></path><defs><linearGradient id="gradient" x1="0%" y1="50%" x2="100%" y2="50%"><stop offset="5%" stop-color="#3f51b5"></stop><stop offset="95%" stop-color="#8ED1FC"></stop></linearGradient></defs><path d="M 0,700 C 0,700 0,466 0,466 C 115.03571428571428,495.75 230.07142857142856,525.5 365,536 C 499.92857142857144,546.5 654.75,537.75 785,525 C 915.25,512.25 1020.9285714285713,495.5 1126,485 C 1231.0714285714287,474.5 1335.5357142857142,470.25 1440,466 C 1440,466 1440,700 1440,700 Z" stroke="none" stroke-width="0" fill="url(#gradient)" fill-opacity="1" class="transition-all duration-300 ease-in-out delay-150 path-1"></path></svg>