<svg width="1920" height="1080" viewBox="0 0 1920 1080" xmlns="http://www.w3.org/2000/svg"><rect width="1920" height="1080" fill="#6979d3"/><path d="M 0,1080 C 0,1080 0,180 0,180 C 92.43333333333334,182.04358974358973 184.86666666666667,184.0871794871795 291,197 C 397.1333333333333,209.9128205128205 516.9666666666667,233.6948717948718 620,223 C 723.0333333333333,212.3051282051282 809.2666666666669,167.13333333333333 917,161 C 1024.7333333333331,154.86666666666667 1153.9666666666665,187.77179487179487 1276,181 C 1398.0333333333335,174.22820512820513 1512.8666666666666,127.77948717948718 1619,121 C 1725.1333333333334,114.22051282051282 1822.5666666666666,147.1102564102564 1920,180 C 1920,180 1920,1080 1920,1080 Z" fill="#afbaf8" opacity="0.09999999999999999"/><path d="M 0,1080 C 0,1080 0,360 0,360 C 119.55128205128207,363.11538461538464 239.10256410256414,366.2307692307692 357,362 C 474.89743589743586,357.7692307692308 591.1410256410255,346.1923076923077 684,340 C 776.8589743589745,333.8076923076923 846.3333333333333,333 957,320 C 1067.6666666666667,307 1219.525641025641,281.8076923076924 1317,295 C 1414.474358974359,308.1923076923076 1457.5641025641025,359.7692307692308 1549,377 C 1640.4358974358975,394.2307692307692 1780.2179487179487,377.11538461538464 1920,360 C 1920,360 1920,1080 1920,1080 Z" fill="#afbaf8" opacity="0.19999999999999998"/><path d="M 0,1080 C 0,1080 0,540 0,540 C 124.04871794871795,514.7051282051282 248.0974358974359,489.4102564102564 360,499 C 471.9025641025641,508.5897435897436 571.6589743589743,553.0641025641025 674,569 C 776.3410256410257,584.9358974358975 881.2666666666669,572.3333333333334 992,553 C 1102.7333333333331,533.6666666666666 1219.274358974359,507.6025641025641 1312,523 C 1404.725641025641,538.3974358974359 1473.6358974358975,595.2564102564103 1571,605 C 1668.3641025641025,614.7435897435897 1794.1820512820514,577.3717948717949 1920,540 C 1920,540 1920,1080 1920,1080 Z" fill="#afbaf8" opacity="0.3"/><path d="M 0,1080 C 0,1080 0,720 0,720 C 120.29743589743592,760.3692307692307 240.59487179487184,800.7384615384615 356,784 C 471.40512820512816,767.2615384615385 581.9179487179487,693.4153846153847 669,676 C 756.0820512820513,658.5846153846153 819.7333333333333,697.5999999999999 907,710 C 994.2666666666667,722.4000000000001 1105.1487179487178,708.1846153846154 1233,722 C 1360.8512820512822,735.8153846153846 1505.6717948717949,777.6615384615384 1623,782 C 1740.3282051282051,786.3384615384616 1830.1641025641024,753.1692307692308 1920,720 C 1920,720 1920,1080 1920,1080 Z" fill="#afbaf8" opacity="0.39999999999999997"/><path d="M 0,1080 C 0,1080 0,900 0,900 C 144.73076923076925,858.3615384615384 289.4615384615385,816.723076923077 376,837 C 462.5384615384615,857.276923076923 490.88461538461536,939.4692307692308 596,933 C 701.1153846153846,926.5307692307692 883,831.4000000000001 1003,838 C 1123,844.5999999999999 1181.115384615385,952.9307692307691 1257,958 C 1332.884615384615,963.0692307692309 1426.5384615384614,864.876923076923 1540,838 C 1653.4615384615386,811.123076923077 1786.7307692307693,855.5615384615385 1920,900 C 1920,900 1920,1080 1920,1080 Z" fill="#afbaf8" opacity="0.49999999999999994"/></svg>